PathFileType	4	(X/Y/Z)	C:\Users\chris\Documents\GitHub\baseballds\vids\pitch5_Sports2D\pitch5_Sports2D_px_person03.trc
DataRate	CameraRate	NumFrames	NumMarkers	Units	OrigDataRate	OrigDataStartFrame	OrigNumFrames
30	30	8	22	m	30	93	149
Frame#	Time	Hip			RHip			RKnee			RAnkle			RBigToe			RSmallToe			RHeel			LHip			LKnee			LAnkle			LBigToe			LSmallToe			LHeel			Neck			Head			Nose			RShoulder			RElbow			RWrist			LShoulder			LElbow			LWrist		
		X1	Y1	Z1	X2	Y2	Z2	X3	Y3	Z3	X4	Y4	Z4	X5	Y5	Z5	X6	Y6	Z6	X7	Y7	Z7	X8	Y8	Z8	X9	Y9	Z9	X10	Y10	Z10	X11	Y11	Z11	X12	Y12	Z12	X13	Y13	Z13	X14	Y14	Z14	X15	Y15	Z15	X16	Y16	Z16	X17	Y17	Z17	X18	Y18	Z18	X19	Y19	Z19	X20	Y20	Z20	X21	Y21	Z21	X22	Y22	Z22
93	3.1	1496.9154733988914	473.04974410237287	0.0	1495.650511573558	473.4454264373656	0.0	1497.648917994964	486.5207415170936	0.0	1498.9582493302732	500.64393470426745	0.0	1492.6633853106784	503.7456674863231	0.0	1490.4136390101362	502.83455896301376	0.0	1500.0638625631318	503.08153339177267	0.0	1498.0561688716766	473.6426924766601	0.0	1496.2743969278988	486.5219203957881	0.0	1497.7422010511702	500.62290983018863	0.0	1490.6613355238237	502.98109718731064	0.0	1493.0937376552304	502.51619360415555	0.0	1500.5302768484748	501.75486556616545	0.0	1496.3259797975331	452.6865772179017	0.0	1494.7290651735623	443.3471495539873	0.0	1492.6666756956522	449.4159493322281	0.0	1496.4968873006028	455.24764099996446	0.0	1495.1361303872748	463.87515516321247	0.0	1492.5218450287089	472.81283383275263	0.0	1497.9930559469885	454.0025405358708	0.0	1498.8715712868448	464.26281207466974	0.0	1495.758537870915	475.10690711753483	0.0
94	3.1333333333333333	1496.847108941778	473.3889885331196	0.0	1495.5673922706674	473.7046220670822	0.0	1497.6444932906668	486.64596557507	0.0	1498.896999012637	500.74545069321636	0.0	1492.688158968049	503.90176605963404	0.0	1490.512813257048	502.973324296743	0.0	1500.004612895756	503.1052253195382	0.0	1497.8697965387046	473.8910280503169	0.0	1496.3090370047448	486.6390772266374	0.0	1497.7801901359278	500.7461831261219	0.0	1490.7808338270443	503.1639236149659	0.0	1493.0997153662847	502.5269689704695	0.0	1500.5333006362412	501.8199393053465	0.0	1496.3368015524452	453.04495997185194	0.0	1494.6460071085667	443.703129852061	0.0	1492.637503616162	449.73415302735293	0.0	1496.5714367692044	455.6211213559009	0.0	1495.2662237894756	464.2246476064579	0.0	1492.7155909011435	473.1662972686935	0.0	1497.9571049022493	454.2697986437746	0.0	1498.8984767979932	464.54088687105957	0.0	1495.788462019673	475.32709031430977	0.0
95	3.1666666666666665	1496.5495297332798	474.49901391286653	0.0	1495.1807278005865	474.6207585815431	0.0	1497.4022977642385	487.1802230335699	0.0	1498.4931503934258	501.21427507894947	0.0	1492.6277169244104	504.47830751499305	0.0	1490.7309103287866	503.5121300240419	0.0	1499.5775329373118	503.2731799048745	0.0	1497.2944953968417	474.738522168967	0.0	1496.4878027066122	487.1612016114982	0.0	1497.9553736919236	501.3230229688519	0.0	1491.5185313101083	503.896857386453	0.0	1493.0965960901685	502.517606288093	0.0	1500.5135172236273	502.20898980802895	0.0	1496.2767737055813	454.2518264889094	0.0	1494.2806703516023	444.87442955284894	0.0	1492.515312563497	450.78538260592325	0.0	1496.6201551504012	456.86195586045335	0.0	1495.6924412815874	465.38813994068397	0.0	1493.4022652381905	474.51522367148175	0.0	1497.7815649420243	455.25659765609635	0.0	1498.9385850758952	465.55201524565064	0.0	1495.8196478331104	476.15820770070053	0.0
96	3.2	1496.0930192449025	475.8163087537255	0.0	1494.5671176068283	475.79789969635056	0.0	1496.8047516970062	487.9957672224708	0.0	1497.7387364771762	501.944143498191	0.0	1492.3394505097492	505.2447447051502	0.0	1490.8268774630474	504.25482842786556	0.0	1498.7701725443371	503.58861827512465	0.0	1496.6768921538983	475.8016442336816	0.0	1496.7991549360247	487.9950493952516	0.0	1498.2328726379253	502.248801773725	0.0	1492.8928820094188	504.94730757454755	0.0	1493.0601821768335	502.4449087467797	0.0	1500.449642054798	502.90674708603905	0.0	1496.0871648547022	455.71968503882965	0.0	1493.7691186904285	446.2264494455221	0.0	1492.3516289741233	452.02383166986976	0.0	1496.407947792263	458.3767164027398	0.0	1496.1541722458505	466.79065305749856	0.0	1494.2457030978662	476.3538703567132	0.0	1497.5284996867026	456.59812393242953	0.0	1498.9157053792228	466.88304854508374	0.0	1495.7556455634488	477.2898079183025	0.0
97	3.2333333333333334	1495.6805377415317	476.43711887804886	0.0	1494.0282760976133	476.48630424942553	0.0	1495.9950294128735	488.7244330910642	0.0	1496.932168809749	502.5406358804234	0.0	1491.7640702796193	505.7153039429984	0.0	1490.5668113133918	504.7415762769703	0.0	1497.9395310833788	503.9068403972605	0.0	1496.5246856555955	476.4122806723609	0.0	1497.1241337820088	488.8202183028483	0.0	1498.4680677450938	503.0882925237212	0.0	1494.360377078731	505.7373607303163	0.0	1493.007394508941	502.35553283898344	0.0	1500.3498671829252	503.61408842388863	0.0	1495.8364462543473	456.458366313181	0.0	1493.5298912188707	446.7125530155723	0.0	1492.2880559231921	452.55749999775117	0.0	1495.848260155233	459.2138462455061	0.0	1496.1600955355952	467.4885230942893	0.0	1494.5786520880702	477.5310583116376	0.0	1497.4133307159368	457.5800098885222	0.0	1498.767525445317	467.7205585915879	0.0	1495.5293098380512	478.03047299636484	0.0
98	3.2666666666666666	1495.3463520398825	476.43056133941127	0.0	1493.720711394657	476.6242146532755	0.0	1495.2713302197585	489.2521421913881	0.0	1496.3765087271122	502.8201333052543	0.0	1491.0345570330878	505.78381292320523	0.0	1490.1459186210695	504.86291056225406	0.0	1497.4506051164904	504.11880498478996	0.0	1496.6902703728008	476.5592518466026	0.0	1497.3296937824093	489.5148336405574	0.0	1498.565549788844	503.59645570230384	0.0	1495.180750766453	506.1170261514825	0.0	1493.0937381250528	502.5581247267212	0.0	1500.261050003209	504.1071977415694	0.0	1495.687194885823	456.5176862655925	0.0	1493.7170075556505	446.4730565308771	0.0	1492.3566450344688	452.4801253701796	0.0	1495.2371366199013	459.44610474128865	0.0	1495.6909372861217	467.56600448858865	0.0	1494.3534287591185	477.7470172802451	0.0	1497.487759520266	458.15609150739607	0.0	1498.577432222918	468.0019142214702	0.0	1495.2553955716392	478.1952741299284	0.0
99	3.3	1495.0228309532295	476.41002855845556	0.0	1493.5668624810153	476.64063048904	0.0	1494.797887213872	489.6141584377367	0.0	1496.125481147378	502.9068876146653	0.0	1490.383150182136	505.69861508990203	0.0	1489.921083536995	504.85096373529234	0.0	1497.3290033547692	504.2584898330044	0.0	1496.6540654688893	476.6370538236009	0.0	1497.3371391314738	490.0427359766915	0.0	1498.5376666234283	503.8105103439606	0.0	1494.9793560262751	506.32421150907606	0.0	1493.5262570469233	503.3968683464181	0.0	1500.2229620122623	504.398474958594	0.0	1495.6855346821808	456.5691727372391	0.0	1494.0159083966182	446.45710744652297	0.0	1492.4209058786441	452.48387823224135	0.0	1494.9001192310914	459.65167044620495	0.0	1495.2724255544795	467.7075836686148	0.0	1494.0967896504098	477.5813868388565	0.0	1497.5512407535698	458.6423884126491	0.0	1498.4988387472074	468.2015561472278	0.0	1495.1631280216438	478.10484874164314	0.0
100	3.3333333333333335	1494.7638723626292	476.4141357327292	0.0	1493.4308383300915	476.61666515461576	0.0	1494.452102745774	489.66001096935616	0.0	1495.9620721075557	502.87473841657015	0.0	1489.9505515232936	505.65651562237565	0.0	1489.873002913614	504.81308974488275	0.0	1497.2871370434948	504.2918246342114	0.0	1496.3834304668412	476.67308310500914	0.0	1497.1970532195894	490.1923598043838	0.0	1498.4164675112381	503.7757296147664	0.0	1494.253149225382	506.4410937751008	0.0	1494.3011606523517	504.59051209852413	0.0	1500.180887842025	504.480158947565	0.0	1495.6933864448347	456.7224115295296	0.0	1494.1130694694527	446.8823980811146	0.0	1492.3657306065581	452.68629496407766	0.0	1494.791699936531	459.83738981131205	0.0	1495.1759243029337	467.9944472440965	0.0	1494.0039856002704	477.5005558795357	0.0	1497.5013250335717	458.99361464237126	0.0	1498.4781003171029	468.4170548037381	0.0	1495.3095938278618	478.0349397190302	0.0
